<svg width="50" height="50" viewBox="0 0 269 269" fill="none" xmlns="http://www.w3.org/2000/svg">
<rect x="7.5" y="7.5" width="254" height="254" rx="21.5" fill="#F1E9DB" stroke="#272932" stroke-width="15"/>
<path d="M122.238 190.607L110.19 168.043L73.422 175.296L70.8455 200.745L47.8051 205.29L63.4235 97.0009L89.568 91.8433L145.278 186.061L122.238 190.607ZM101.547 151.114C90.4956 130.695 84.2517 119.146 82.8155 116.467C81.4252 113.779 80.3828 111.644 79.6883 110.061C79.3319 116.247 77.8573 131.66 75.2645 156.299L101.547 151.114ZM227.967 169.749L206.651 173.954L198.064 130.426L158.123 138.305L166.71 181.834L145.325 186.052L125.43 85.1989L146.815 80.9803L154.612 120.508L194.553 112.628L186.756 73.1011L208.072 68.8962L227.967 169.749Z" fill="#272932"/>
</svg>
